HIERARCHY
ROOT Hips
{
	OFFSET 0.000000 0.000000 0.000000
	CHANNELS 6 Xposition Yposition Zposition Zrotation Yrotation Xrotation 
	JOINT LowerBack
	{
		OFFSET 0.000000 0.000000 0.000000
		CHANNELS 3 Zrotation Yrotation Xrotation
		JOINT Spine
		{
			OFFSET 0.028270 2.035590 -0.193380
			CHANNELS 3 Zrotation Yrotation Xrotation
			JOINT Spine1
			{
				OFFSET 0.056720 2.048850 -0.042750
				CHANNELS 3 Zrotation Yrotation Xrotation
				JOINT Neck
				{
					OFFSET 0.000000 0.000000 0.000000
					CHANNELS 3 Zrotation Yrotation Xrotation
					JOINT Neck1
					{
						OFFSET -0.054170 1.746240 0.172020
						CHANNELS 3 Zrotation Yrotation Xrotation
						JOINT Head
						{
							OFFSET 0.104070 1.761360 -0.123970
							CHANNELS 3 Zrotation Yrotation Xrotation
							End Site
							{
								OFFSET 0.000000 0.000000 0.000000
							}
						}
					}
				}
				JOINT LeftShoulder
				{
					OFFSET 0.000000 0.000000 0.000000
					CHANNELS 3 Zrotation Yrotation Xrotation
					JOINT LeftArm
					{
						OFFSET 3.362410 1.200890 -0.311210
						CHANNELS 3 Zrotation Yrotation Xrotation
						JOINT LeftForeArm
						{
							OFFSET 4.983000 -0.000000 -0.000000
							CHANNELS 3 Zrotation Yrotation Xrotation
							JOINT LeftHand
							{
								OFFSET 3.483560 -0.000000 -0.000000
								CHANNELS 3 Zrotation Yrotation Xrotation
								JOINT LeftFingerBase
								{
									OFFSET 0.000000 0.000000 0.000000
									CHANNELS 3 Zrotation Yrotation Xrotation
									JOINT LeftHandIndex1
									{
										OFFSET 0.715260 -0.000000 -0.000000
										CHANNELS 3 Zrotation Yrotation Xrotation
										End Site
										{
											OFFSET 0.000000 0.000000 0.000000
										}
									}
								}
								JOINT LThumb
								{
									OFFSET 0.000000 0.000000 0.000000
									CHANNELS 3 Zrotation Yrotation Xrotation
									End Site
									{
										OFFSET 0.000000 0.000000 0.000000
									}
								}
							}
						}
					}
				}
				JOINT RightShoulder
				{
					OFFSET 0.000000 0.000000 0.000000
					CHANNELS 3 Zrotation Yrotation Xrotation
					JOINT RightArm
					{
						OFFSET -3.136600 1.374050 -0.404650
						CHANNELS 3 Zrotation Yrotation Xrotation
						JOINT RightForeArm
						{
							OFFSET -5.241900 -0.000000 -0.000000
							CHANNELS 3 Zrotation Yrotation Xrotation
							JOINT RightHand
							{
								OFFSET -3.444170 -0.000000 -0.000000
								CHANNELS 3 Zrotation Yrotation Xrotation
								JOINT RightFingerBase
								{
									OFFSET 0.000000 0.000000 0.000000
									CHANNELS 3 Zrotation Yrotation Xrotation
									JOINT RightHandIndex1
									{
										OFFSET -0.622530 -0.000000 -0.000000
										CHANNELS 3 Zrotation Yrotation Xrotation
										End Site
										{
											OFFSET 0.000000 0.000000 0.000000
										}
									}
								}
								JOINT RThumb
								{
									OFFSET 0.000000 0.000000 0.000000
									CHANNELS 3 Zrotation Yrotation Xrotation
									End Site
									{
										OFFSET 0.000000 0.000000 0.000000
									}
								}
							}
						}
					}
				}
			}
		}
	}
}
}
MOTION
Frames: 7
Frame Time: 0.008333
1.956631 17.396509 0.902518 2.110165 -80.265745 9.512541 -4.045206 -1.111380 -3.655203 -1.254353 -0.811081 -4.658039 -5.204991 -0.823182 -6.234966 6.821986 0.522001 5.988189 -1.858128 -0.326916 3.756289 0.000000 0.000000 0.000000 9.241614 2.062916 -4.875519 -83.408504 -52.588180 15.333730 177.151756 -65.532451 179.716468 13.487022 -11.270660 -1.488706 0.000541 1.246048 -0.000000 0.000000 0.000000 0.000000 0.000000 0.000000 0.000000 -2.266330 0.819364 -6.375029 81.191819 54.366826 5.788956 -174.760904 55.679517 179.615220 -19.839290 19.673477 -3.743241 0.101889 -1.320090 -0.000000 0.000000 0.000000 0.000000 0.000000 0.000000 0.000000 
1.955685 17.393411 0.864836 2.341109 -80.193477 9.607851 -4.239632 -1.099128 -3.664380 -1.289171 -0.782580 -4.639011 -5.199535 -0.795442 -6.145306 6.770305 0.292048 5.725982 -1.836055 -0.321757 3.680786 0.000000 0.000000 0.000000 8.932707 2.269842 -4.702443 -82.791707 -51.804948 14.925812 177.206056 -65.428092 179.715266 13.762827 -11.110052 -1.500622 -0.015495 1.239180 -0.000000 0.000000 0.000000 0.000000 0.000000 0.000000 0.000000 -2.586520 0.654635 -6.369745 81.525998 54.222913 5.888709 -174.738684 55.456393 179.612768 -19.987676 19.699617 -3.778467 0.108175 -1.325793 -0.000000 0.000000 0.000000 0.000000 0.000000 0.000000 0.000000 
1.954987 17.390038 0.825891 2.669275 -80.287285 9.605815 -4.453830 -1.057876 -3.675931 -1.332535 -0.724015 -4.622039 -5.201025 -0.737496 -6.060547 6.687460 0.049535 5.454407 -1.824700 -0.316959 3.601835 0.000000 0.000000 0.000000 8.567064 2.402219 -4.497723 -81.931089 -50.889315 14.347860 177.276395 -65.186286 179.715831 13.969882 -10.893364 -1.497143 -0.032428 1.231004 -0.000000 0.000000 0.000000 0.000000 0.000000 0.000000 0.000000 -2.893230 0.496813 -6.354637 81.904707 54.094466 6.051134 -174.725329 55.265041 179.610454 -20.125466 19.730331 -3.812684 0.114166 -1.331507 -0.000000 0.000000 0.000000 0.000000 0.000000 0.000000 0.000000 
1.953824 17.386469 0.786068 3.107902 -80.576653 9.498163 -4.688810 -0.985908 -3.706734 -1.385214 -0.633895 -4.610556 -5.211511 -0.647958 -5.980800 6.575708 -0.204303 5.179700 -1.829009 -0.312884 3.521222 0.000000 0.000000 0.000000 8.150081 2.443581 -4.260292 -80.837362 -49.799582 13.601582 177.370167 -64.790290 179.718714 14.069158 -10.631324 -1.475558 -0.049710 1.221963 -0.000000 0.000000 0.000000 0.000000 0.000000 0.000000 0.000000 -3.160528 0.347522 -6.330012 82.335816 53.992457 6.303751 -174.727060 55.125305 179.608434 -20.252308 19.760323 -3.844587 0.119972 -1.336830 -0.000000 0.000000 0.000000 0.000000 0.000000 0.000000 0.000000 
1.951878 17.382847 0.745863 3.667004 -81.090052 9.271698 -4.943317 -0.885162 -3.768750 -1.446744 -0.514375 -4.607193 -5.231292 -0.529013 -5.906813 6.441347 -0.466068 4.906572 -1.853402 -0.309857 3.440317 0.000000 0.000000 0.000000 7.694575 2.390763 -3.990455 -79.552087 -48.489702 12.701269 177.493251 -64.231484 179.724063 14.038646 -10.353448 -1.438058 -0.066970 1.213015 -0.000000 0.000000 0.000000 0.000000 0.000000 0.000000 0.000000 -3.359945 0.209602 -6.298552 82.831403 53.931926 6.679768 -174.750343 55.058525 179.606872 -20.368224 19.784903 -3.873272 0.125717 -1.341354 -0.000000 0.000000 0.000000 0.000000 0.000000 0.000000 0.000000 
1.948014 17.379245 0.705770 4.416500 -81.857376 8.866838 -5.224497 -0.761385 -3.881953 -1.516435 -0.370659 -4.616648 -5.254643 -0.386331 -5.841051 6.294795 -0.734631 4.635759 -1.900571 -0.308080 3.359568 0.000000 0.000000 0.000000 7.247407 2.252128 -3.693869 -78.174288 -46.875293 11.657016 177.642815 -63.506566 179.731599 13.884206 -10.074415 -1.388032 -0.083863 1.204571 -0.000000 0.000000 0.000000 0.000000 0.000000 0.000000 0.000000 -3.470740 0.082480 -6.264988 83.418140 53.916309 7.223972 -174.800425 55.082312 179.605795 -20.482313 19.799939 -3.899732 0.131825 -1.344842 -0.000000 0.000000 0.000000 0.000000 0.000000 0.000000 0.000000 
1.942371 17.375775 0.666546 5.387205 -82.901728 8.238916 -5.521474 -0.623329 -4.043136 -1.589727 -0.212035 -4.639561 -5.275377 -0.229136 -5.787830 6.147163 -1.004502 4.366574 -1.972341 -0.307687 3.278882 0.000000 0.000000 0.000000 6.838315 2.050192 -3.375749 -76.801463 -44.899364 10.489859 177.815554 -62.622151 179.740532 13.638341 -9.839819 -1.335464 -0.100578 1.197850 -0.000000 0.000000 0.000000 0.000000 0.000000 0.000000 0.000000 -3.472733 -0.028276 -6.235671 84.119087 53.958586 7.978604 -174.881694 55.211730 179.605290 -20.596310 19.802750 -3.923667 0.138491 -1.347086 -0.000000 0.000000 0.000000 0.000000 0.000000 0.000000 0.000000 
